# xmcd
#
# Track frame offsets: 
#        150
#        17597
#        42263
#        61212
#        82118
#        104771
#        127578
#        147985
#        179047
#        203129
#        224981
#        260393
#
# Disc length: 4387 seconds
#
# Revision: 0
# Processed by: cddbd v1.4PL0 Copyright (c) Steve Scherf et al.
# Submitted via: ExactAudioCopy v0.95a3
#
DISCID=b711210c
DTITLE=Die Söhne Mannheims - Zion
DYEAR=2000
DGENRE=Blues
TTITLE0=The Power Of The Sound
TTITLE1=Jah Is Changing All
TTITLE2=Komm' Heim
TTITLE3=Wir Haben Allen Göttern Abgeschworen
TTITLE4=Sofern Du Mir Nah Bist
TTITLE5=Dein Glück Liegt Mir Am Herzen
TTITLE6=Geh Davon Aus
TTITLE7=Armageddon
TTITLE8=Wir Haben Euch Noch Nichts Getan
TTITLE9=Ihr Wisst Nicht Wo Der Himmel Ist
TTITLE10=Meine Stadt
TTITLE11=Peace Geht Raus
EXTD=
EXTT0=
EXTT1=
EXTT2=
EXTT3=
EXTT4=
EXTT5=
EXTT6=
EXTT7=
EXTT8=
EXTT9=
EXTT10=
EXTT11=
PLAYORDER=
